<mxfile host="Electron" modified="2023-09-14T11:57:19.464Z" agent="Mozilla/5.0 (Macintosh; Intel Mac OS X 10_15_7) AppleWebKit/537.36 (KHTML, like Gecko) draw.io/21.6.8 Chrome/114.0.5735.289 Electron/25.5.0 Safari/537.36" etag="qND3xkWNkYPe_OxuQQ9H" version="21.6.8" type="device">
  <diagram id="4bD_c-oeaj5qDgH8vx98" name="instruction format">
    <mxGraphModel dx="1434" dy="879" grid="1" gridSize="10" guides="1" tooltips="1" connect="1" arrows="1" fold="1" page="1" pageScale="1" pageWidth="2339" pageHeight="3300" math="0" shadow="0">
      <root>
        <mxCell id="0" />
        <mxCell id="1" parent="0" />
        <mxCell id="hQpidO_3RFH-Tx1yoOd2-1" value="MIPS字段" style="text;html=1;align=center;verticalAlign=middle;resizable=0;points=[];autosize=1;strokeColor=none;" parent="1" vertex="1">
          <mxGeometry x="110" y="90" width="70" height="20" as="geometry" />
        </mxCell>
        <mxCell id="hQpidO_3RFH-Tx1yoOd2-2" value="op" style="whiteSpace=wrap;html=1;" parent="1" vertex="1">
          <mxGeometry x="110" y="140" width="80" height="30" as="geometry" />
        </mxCell>
        <mxCell id="hQpidO_3RFH-Tx1yoOd2-3" value="rs" style="whiteSpace=wrap;html=1;" parent="1" vertex="1">
          <mxGeometry x="190" y="140" width="80" height="30" as="geometry" />
        </mxCell>
        <mxCell id="hQpidO_3RFH-Tx1yoOd2-4" value="rt" style="whiteSpace=wrap;html=1;" parent="1" vertex="1">
          <mxGeometry x="270" y="140" width="80" height="30" as="geometry" />
        </mxCell>
        <mxCell id="hQpidO_3RFH-Tx1yoOd2-5" value="rd" style="whiteSpace=wrap;html=1;" parent="1" vertex="1">
          <mxGeometry x="350" y="140" width="80" height="30" as="geometry" />
        </mxCell>
        <mxCell id="hQpidO_3RFH-Tx1yoOd2-6" value="shamt" style="whiteSpace=wrap;html=1;" parent="1" vertex="1">
          <mxGeometry x="430" y="140" width="80" height="30" as="geometry" />
        </mxCell>
        <mxCell id="hQpidO_3RFH-Tx1yoOd2-7" value="funct" style="whiteSpace=wrap;html=1;" parent="1" vertex="1">
          <mxGeometry x="510" y="140" width="80" height="30" as="geometry" />
        </mxCell>
        <mxCell id="hQpidO_3RFH-Tx1yoOd2-8" value="6位" style="text;html=1;align=center;verticalAlign=middle;resizable=0;points=[];autosize=1;strokeColor=none;" parent="1" vertex="1">
          <mxGeometry x="135" y="170" width="30" height="20" as="geometry" />
        </mxCell>
        <mxCell id="hQpidO_3RFH-Tx1yoOd2-9" value="5位" style="text;html=1;align=center;verticalAlign=middle;resizable=0;points=[];autosize=1;strokeColor=none;" parent="1" vertex="1">
          <mxGeometry x="215" y="170" width="30" height="20" as="geometry" />
        </mxCell>
        <mxCell id="hQpidO_3RFH-Tx1yoOd2-10" value="5位" style="text;html=1;align=center;verticalAlign=middle;resizable=0;points=[];autosize=1;strokeColor=none;" parent="1" vertex="1">
          <mxGeometry x="295" y="170" width="30" height="20" as="geometry" />
        </mxCell>
        <mxCell id="hQpidO_3RFH-Tx1yoOd2-11" value="5位" style="text;html=1;align=center;verticalAlign=middle;resizable=0;points=[];autosize=1;strokeColor=none;" parent="1" vertex="1">
          <mxGeometry x="375" y="170" width="30" height="20" as="geometry" />
        </mxCell>
        <mxCell id="hQpidO_3RFH-Tx1yoOd2-12" value="5位" style="text;html=1;align=center;verticalAlign=middle;resizable=0;points=[];autosize=1;strokeColor=none;" parent="1" vertex="1">
          <mxGeometry x="455" y="170" width="30" height="20" as="geometry" />
        </mxCell>
        <mxCell id="hQpidO_3RFH-Tx1yoOd2-13" value="6位" style="text;html=1;align=center;verticalAlign=middle;resizable=0;points=[];autosize=1;strokeColor=none;" parent="1" vertex="1">
          <mxGeometry x="535" y="170" width="30" height="20" as="geometry" />
        </mxCell>
        <mxCell id="hQpidO_3RFH-Tx1yoOd2-14" value="op:&amp;nbsp; 指令的基本操作，通常称为操作码 opcode" style="text;html=1;align=left;verticalAlign=middle;resizable=0;points=[];autosize=1;strokeColor=none;" parent="1" vertex="1">
          <mxGeometry x="110" y="230" width="260" height="20" as="geometry" />
        </mxCell>
        <mxCell id="hQpidO_3RFH-Tx1yoOd2-15" value="rs:&amp;nbsp; 第一个源操作数寄存器" style="text;html=1;align=left;verticalAlign=middle;resizable=0;points=[];autosize=1;strokeColor=none;" parent="1" vertex="1">
          <mxGeometry x="110" y="260" width="160" height="20" as="geometry" />
        </mxCell>
        <mxCell id="hQpidO_3RFH-Tx1yoOd2-16" value="rt:&amp;nbsp; 第二个源操作数寄存器" style="text;html=1;align=left;verticalAlign=middle;resizable=0;points=[];autosize=1;strokeColor=none;" parent="1" vertex="1">
          <mxGeometry x="110" y="290" width="150" height="20" as="geometry" />
        </mxCell>
        <mxCell id="hQpidO_3RFH-Tx1yoOd2-17" value="rd:&amp;nbsp; 用于存放操作结果的目的寄存器" style="text;html=1;align=left;verticalAlign=middle;resizable=0;points=[];autosize=1;strokeColor=none;" parent="1" vertex="1">
          <mxGeometry x="110" y="320" width="200" height="20" as="geometry" />
        </mxCell>
        <mxCell id="hQpidO_3RFH-Tx1yoOd2-18" value="shamt:&amp;nbsp; 位移量" style="text;html=1;align=left;verticalAlign=middle;resizable=0;points=[];autosize=1;strokeColor=none;" parent="1" vertex="1">
          <mxGeometry x="110" y="350" width="90" height="20" as="geometry" />
        </mxCell>
        <mxCell id="hQpidO_3RFH-Tx1yoOd2-19" value="funct:&amp;nbsp; 功能。一般称为功能吗 function code ，用于指明op字段中操作的特定变式" style="text;html=1;align=left;verticalAlign=middle;resizable=0;points=[];autosize=1;strokeColor=none;" parent="1" vertex="1">
          <mxGeometry x="110" y="380" width="440" height="20" as="geometry" />
        </mxCell>
        <mxCell id="hQpidO_3RFH-Tx1yoOd2-20" value="op" style="whiteSpace=wrap;html=1;" parent="1" vertex="1">
          <mxGeometry x="110" y="500" width="80" height="30" as="geometry" />
        </mxCell>
        <mxCell id="hQpidO_3RFH-Tx1yoOd2-21" value="rs" style="whiteSpace=wrap;html=1;" parent="1" vertex="1">
          <mxGeometry x="190" y="500" width="80" height="30" as="geometry" />
        </mxCell>
        <mxCell id="hQpidO_3RFH-Tx1yoOd2-22" value="rt" style="whiteSpace=wrap;html=1;" parent="1" vertex="1">
          <mxGeometry x="270" y="500" width="80" height="30" as="geometry" />
        </mxCell>
        <mxCell id="hQpidO_3RFH-Tx1yoOd2-23" value="constant or address" style="whiteSpace=wrap;html=1;" parent="1" vertex="1">
          <mxGeometry x="350" y="500" width="220" height="30" as="geometry" />
        </mxCell>
        <mxCell id="hQpidO_3RFH-Tx1yoOd2-26" value="6位" style="text;html=1;align=center;verticalAlign=middle;resizable=0;points=[];autosize=1;strokeColor=none;" parent="1" vertex="1">
          <mxGeometry x="135" y="530" width="30" height="20" as="geometry" />
        </mxCell>
        <mxCell id="hQpidO_3RFH-Tx1yoOd2-27" value="5位" style="text;html=1;align=center;verticalAlign=middle;resizable=0;points=[];autosize=1;strokeColor=none;" parent="1" vertex="1">
          <mxGeometry x="215" y="530" width="30" height="20" as="geometry" />
        </mxCell>
        <mxCell id="hQpidO_3RFH-Tx1yoOd2-28" value="5位" style="text;html=1;align=center;verticalAlign=middle;resizable=0;points=[];autosize=1;strokeColor=none;" parent="1" vertex="1">
          <mxGeometry x="295" y="530" width="30" height="20" as="geometry" />
        </mxCell>
        <mxCell id="hQpidO_3RFH-Tx1yoOd2-29" value="16位" style="text;html=1;align=center;verticalAlign=middle;resizable=0;points=[];autosize=1;strokeColor=none;" parent="1" vertex="1">
          <mxGeometry x="440" y="530" width="40" height="20" as="geometry" />
        </mxCell>
        <mxCell id="hQpidO_3RFH-Tx1yoOd2-34" value="R型 用于寄存器" style="text;html=1;align=center;verticalAlign=middle;resizable=0;points=[];autosize=1;strokeColor=none;" parent="1" vertex="1">
          <mxGeometry x="295" y="100" width="100" height="20" as="geometry" />
        </mxCell>
        <mxCell id="hQpidO_3RFH-Tx1yoOd2-35" value="I型 立即数和数据传送" style="text;html=1;align=center;verticalAlign=middle;resizable=0;points=[];autosize=1;strokeColor=none;" parent="1" vertex="1">
          <mxGeometry x="280" y="470" width="130" height="20" as="geometry" />
        </mxCell>
        <mxCell id="5H1oBPvOIG8OY7lUtAoT-1" value="op" style="whiteSpace=wrap;html=1;" parent="1" vertex="1">
          <mxGeometry x="110" y="660" width="80" height="30" as="geometry" />
        </mxCell>
        <mxCell id="5H1oBPvOIG8OY7lUtAoT-2" value="J型&amp;nbsp;" style="text;html=1;align=center;verticalAlign=middle;resizable=0;points=[];autosize=1;strokeColor=none;" parent="1" vertex="1">
          <mxGeometry x="300" y="630" width="40" height="20" as="geometry" />
        </mxCell>
        <mxCell id="5H1oBPvOIG8OY7lUtAoT-3" value="op" style="whiteSpace=wrap;html=1;" parent="1" vertex="1">
          <mxGeometry x="190" y="660" width="380" height="30" as="geometry" />
        </mxCell>
        <mxCell id="5H1oBPvOIG8OY7lUtAoT-4" value="6位" style="text;html=1;align=center;verticalAlign=middle;resizable=0;points=[];autosize=1;strokeColor=none;" parent="1" vertex="1">
          <mxGeometry x="135" y="690" width="30" height="20" as="geometry" />
        </mxCell>
        <mxCell id="5H1oBPvOIG8OY7lUtAoT-5" value="26位" style="text;html=1;align=center;verticalAlign=middle;resizable=0;points=[];autosize=1;strokeColor=none;" parent="1" vertex="1">
          <mxGeometry x="370" y="690" width="40" height="20" as="geometry" />
        </mxCell>
      </root>
    </mxGraphModel>
  </diagram>
</mxfile>
